<svg id="Layer_1" data-name="Layer 1" xmlns="http://www.w3.org/2000/svg" viewBox="0 0 122 82"><defs><style>.cls-1{fill:#ffc95c;}.cls-2{fill:#f4b344;}.cls-3{fill:#10385a;}.cls-4{fill:#ebeef7;}.cls-5{fill:#afc3d7;}.cls-6{fill:#91acc3;}.cls-7{fill:#ef4c4e;}.cls-8{fill:#db3440;}.cls-9{fill:#ccd9e4;}.cls-10{fill:#acd6f2;}.cls-11{fill:#70b6e4;}</style></defs><title>dsites</title><path class="cls-1" d="M10.31,45.91a8,8,0,0,1,5.54-.69,10,10,0,0,1,5.53-3.87A6,6,0,0,0,10,44,6.21,6.21,0,0,0,10.31,45.91Z" transform="translate(-5 -5)"/><path class="cls-2" d="M19.91,43a9,9,0,0,1,1.83-.72,6,6,0,0,0-2.62-3.41A6,6,0,0,1,20,42,6.77,6.77,0,0,1,19.91,43Z" transform="translate(-5 -5)"/><path class="cls-3" d="M42,27h0a1,1,0,0,1-1-1h0a1,1,0,0,0-1-1h0a1,1,0,0,0-1,1h0a1,1,0,0,1-1,1h0a1,1,0,0,0-1,1h0a1,1,0,0,0,1,1h0a1,1,0,0,1,1,1h0a1,1,0,0,0,1,1h0a1,1,0,0,0,1-1h0a1,1,0,0,1,1-1h0a1,1,0,0,0,1-1h0A1,1,0,0,0,42,27Z" transform="translate(-5 -5)"/><path class="cls-3" d="M56,12h0a1,1,0,0,1-1-1h0a1,1,0,0,0-1-1h0a1,1,0,0,0-1,1h0a1,1,0,0,1-1,1h0a1,1,0,0,0-1,1h0a1,1,0,0,0,1,1h0a1,1,0,0,1,1,1h0a1,1,0,0,0,1,1h0a1,1,0,0,0,1-1h0a1,1,0,0,1,1-1h0a1,1,0,0,0,1-1h0A1,1,0,0,0,56,12Z" transform="translate(-5 -5)"/><path class="cls-3" d="M93,26h0a1,1,0,0,1-1-1h0a1,1,0,0,0-1-1h0a1,1,0,0,0-1,1h0a1,1,0,0,1-1,1h0a1,1,0,0,0-1,1h0a1,1,0,0,0,1,1h0a1,1,0,0,1,1,1h0a1,1,0,0,0,1,1h0a1,1,0,0,0,1-1h0a1,1,0,0,1,1-1h0a1,1,0,0,0,1-1h0A1,1,0,0,0,93,26Z" transform="translate(-5 -5)"/><path class="cls-3" d="M84,7h0a1,1,0,0,1-1-1h0a1,1,0,0,0-1-1h0a1,1,0,0,0-1,1h0a1,1,0,0,1-1,1h0a1,1,0,0,0-1,1h0a1,1,0,0,0,1,1h0a1,1,0,0,1,1,1h0a1,1,0,0,0,1,1h0a1,1,0,0,0,1-1h0a1,1,0,0,1,1-1h0a1,1,0,0,0,1-1h0A1,1,0,0,0,84,7Z" transform="translate(-5 -5)"/><circle class="cls-3" cx="9" cy="60" r="1"/><path class="cls-3" d="M20,62H6a1,1,0,0,1,0-2H20a1,1,0,0,1,0,2Z" transform="translate(-5 -5)"/><path class="cls-3" d="M31,66H18a1,1,0,0,1,0-2H31a1,1,0,0,1,0,2Z" transform="translate(-5 -5)"/><path class="cls-3" d="M123,43h-6.07a7,7,0,0,0-13-2.5.64.64,0,0,0-.06.18,5.33,5.33,0,0,0-1.38-.18,5.5,5.5,0,0,0-4.88,3A3,3,0,0,0,93,46a1,1,0,0,0,2,0,1,1,0,0,1,2,0,1,1,0,0,0,2,0,3.5,3.5,0,0,1,3.5-3.5,3.41,3.41,0,0,1,1.6.39,3.52,3.52,0,0,1,1.54,1.56,1,1,0,0,0,1.79-.89,5.57,5.57,0,0,0-1.77-2.05h0A5,5,0,0,1,115,44a1,1,0,0,0,1,1h7a1,1,0,0,0,0-2Z" transform="translate(-5 -5)"/><circle class="cls-3" cx="121" cy="39" r="1"/><path class="cls-3" d="M103,55a1,1,0,0,0-1-1H92a1,1,0,0,0,0,2h10A1,1,0,0,0,103,55Z" transform="translate(-5 -5)"/><path class="cls-3" d="M109,59a1,1,0,0,0-1-1H98a1,1,0,0,0,0,2h10A1,1,0,0,0,109,59Z" transform="translate(-5 -5)"/><path class="cls-3" d="M116,56a1,1,0,0,0,0-2h-5a1,1,0,0,0,0,2Z" transform="translate(-5 -5)"/><path class="cls-3" d="M115,59a4,4,0,0,0-3.87,3H107a1,1,0,0,0,0,2h5a1,1,0,0,0,1-1,2,2,0,0,1,4,0,1,1,0,0,0,2,0A4,4,0,0,0,115,59Z" transform="translate(-5 -5)"/><path class="cls-3" d="M9.86,48.36a.75.75,0,0,1-.21,0,1,1,0,0,1-.67-.5,8,8,0,1,1,14.71-6,1,1,0,0,1-.12.82,1,1,0,0,1-.7.44,8,8,0,0,0-5.73,3.82,1,1,0,0,1-1.18.43,6,6,0,0,0-5.51.84A1,1,0,0,1,9.86,48.36ZM16,38a6,6,0,0,0-6,6,6.21,6.21,0,0,0,.31,1.91,8,8,0,0,1,5.54-.69,10,10,0,0,1,5.53-3.87A6,6,0,0,0,16,38Z" transform="translate(-5 -5)"/><path class="cls-3" d="M33.16,47A10,10,0,0,0,24,41a9.9,9.9,0,0,0-8.15,4.22A7.73,7.73,0,0,0,14,45a8,8,0,0,0-8,8,1,1,0,0,0,2,0,6,6,0,0,1,6-6,5.67,5.67,0,0,1,.82.07A9.91,9.91,0,0,0,14,51a1,1,0,0,0,2,0,7.93,7.93,0,0,1,1.17-4.15c.17-.27.35-.52.54-.77l0-.06A7.91,7.91,0,0,1,24,43a8,8,0,0,1,7.07,4.28,7,7,0,0,0-3.29,2,1,1,0,0,0,.08,1.42,1,1,0,0,0,.67.25,1,1,0,0,0,.74-.33A5,5,0,0,1,38,54a1,1,0,0,0,2,0A7,7,0,0,0,33.16,47Z" transform="translate(-5 -5)"/><path class="cls-3" d="M66,81a1,1,0,0,1-1-1V73a1,1,0,1,1,2,0v7A1,1,0,0,1,66,81Z" transform="translate(-5 -5)"/><path class="cls-3" d="M66,87a1,1,0,0,1-1-1V83a1,1,0,0,1,2,0v3A1,1,0,0,1,66,87Z" transform="translate(-5 -5)"/><path class="cls-4" d="M59,64H73V40a20.79,20.79,0,0,0-6-14.67,1.23,1.23,0,0,0-1.72,0A21,21,0,0,0,59,40.22Z" transform="translate(-5 -5)"/><path class="cls-5" d="M69,66H63l-.29.65A7.5,7.5,0,0,0,62.06,69h7.88a8,8,0,0,0-.7-2.38Z" transform="translate(-5 -5)"/><path class="cls-3" d="M71,71H61a1,1,0,0,1-1-1v0a9.78,9.78,0,0,1,.9-4.13l.56-1.23a1,1,0,0,1,.91-.59h7.22a1,1,0,0,1,.9.58l.56,1.19A10,10,0,0,1,72,70,1,1,0,0,1,71,71Zm-8.94-2h7.88a8,8,0,0,0-.7-2.38L69,66H63l-.29.65A7.5,7.5,0,0,0,62.06,69Z" transform="translate(-5 -5)"/><path class="cls-6" d="M68.67,69h1.27a8,8,0,0,0-.7-2.38L69,66H63l-.29.65-.15.35H66A2.75,2.75,0,0,1,68.67,69Z" transform="translate(-5 -5)"/><polygon class="cls-5" points="52 55.96 52 49.83 48 52.5 48 55.96 52 55.96"/><path class="cls-3" d="M70,77a1,1,0,0,1-1-1V73a1,1,0,1,1,2,0v3A1,1,0,0,1,70,77Z" transform="translate(-5 -5)"/><path class="cls-3" d="M62,77a1,1,0,0,1-1-1V73a1,1,0,1,1,2,0v3A1,1,0,0,1,62,77Z" transform="translate(-5 -5)"/><path class="cls-3" d="M49,72a1,1,0,0,1-1-1V68a1,1,0,0,1,2,0v3A1,1,0,0,1,49,72Z" transform="translate(-5 -5)"/><rect class="cls-7" x="54" y="55.96" width="14" height="3"/><polygon class="cls-5" points="74 55.96 74 52.5 70 49.83 70 55.96 74 55.96"/><path class="cls-4" d="M85,52.21a2,2,0,0,0-.59-1.42,2,2,0,0,0-2.82,0A2,2,0,0,0,81,52.21V64h4Z" transform="translate(-5 -5)"/><path class="cls-3" d="M83,72a1,1,0,0,1-1-1V68a1,1,0,1,1,2,0v3A1,1,0,0,1,83,72Z" transform="translate(-5 -5)"/><circle class="cls-3" cx="61" cy="45.96" r="1"/><circle class="cls-3" cx="61" cy="48.96" r="1"/><circle class="cls-3" cx="61" cy="51.96" r="1"/><circle class="cls-3" cx="44" cy="68.96" r="1"/><circle class="cls-3" cx="78" cy="68.96" r="1"/><path class="cls-7" d="M65.26,25.31a20.86,20.86,0,0,0-5,7.65H71.78A20.74,20.74,0,0,0,67,25.35,1.23,1.23,0,0,0,65.26,25.31Z" transform="translate(-5 -5)"/><path class="cls-8" d="M69,61v1a1,1,0,0,1-1,1H59v1H73V61Z" transform="translate(-5 -5)"/><rect class="cls-7" x="76" y="55.96" width="4" height="3"/><path class="cls-8" d="M83,61h0a2,2,0,0,1-2,2h0v1h4V61Z" transform="translate(-5 -5)"/><path class="cls-6" d="M76,55.5l-1-.67V61h4V60H77a1,1,0,0,1-1-1Z" transform="translate(-5 -5)"/><path class="cls-6" d="M55,60a1,1,0,0,1-1-1V56.83l-1,.67V61h4V60Z" transform="translate(-5 -5)"/><path class="cls-8" d="M67,25.34a1.23,1.23,0,0,0-1.63-.11A20.85,20.85,0,0,1,68.59,33h3.17A20.8,20.8,0,0,0,67,25.34Z" transform="translate(-5 -5)"/><path class="cls-9" d="M69,59h4V40a20.8,20.8,0,0,0-.64-5H68.89c.06.68.11,1.36.11,2Z" transform="translate(-5 -5)"/><circle class="cls-10" cx="61" cy="38.96" r="3"/><path class="cls-11" d="M64,45a3,3,0,0,1,3-3,3,3,0,0,1,1.56.44,3,3,0,1,0-4.12,4.13A3,3,0,0,1,64,45Z" transform="translate(-5 -5)"/><path class="cls-9" d="M85,59V52.21a.5.5,0,0,0,0-.16,1,1,0,0,0-2,.43V59Z" transform="translate(-5 -5)"/><path class="cls-4" d="M51,52.21a2,2,0,0,0-.59-1.42,2,2,0,0,0-2.82,0A2,2,0,0,0,47,52.21V64h4Z" transform="translate(-5 -5)"/><rect class="cls-7" x="42" y="55.96" width="4" height="3"/><path class="cls-8" d="M49,61h0a2,2,0,0,1-2,2h0v1h4V61Z" transform="translate(-5 -5)"/><path class="cls-3" d="M85.83,49.38a4.1,4.1,0,0,0-5.66,0A4,4,0,0,0,79,52.21v2.88l-4-2.66V40a22.77,22.77,0,0,0-6.61-16.09,3.3,3.3,0,0,0-4.53,0A23,23,0,0,0,57,40.22V52.43l-4,2.66V52.21a4,4,0,0,0-1.17-2.83,4.1,4.1,0,0,0-5.66,0A4,4,0,0,0,45,52.21V65a1,1,0,0,0,1,1h6a1,1,0,0,0,1-1V63h4v2a1,1,0,0,0,1,1H74a1,1,0,0,0,1-1V63h4v2a1,1,0,0,0,1,1h6a1,1,0,0,0,1-1V52.21A4,4,0,0,0,85.83,49.38ZM47.59,50.79a2,2,0,0,1,2.82,0A2,2,0,0,1,51,52.21V59H47V52.21A2,2,0,0,1,47.59,50.79ZM51,64H47V61h4Zm6-3H53V57.5l4-2.67Zm8.26-35.65a1.23,1.23,0,0,1,1.72,0A20.8,20.8,0,0,1,71.76,33H60.34A20.87,20.87,0,0,1,65.26,25.31ZM73,64H59V61H73Zm0-5H59V40.22A20.71,20.71,0,0,1,59.71,35H72.36A20.8,20.8,0,0,1,73,40Zm8-6.75a2,2,0,0,1,.59-1.42,2,2,0,0,1,2.82,0A2,2,0,0,1,85,52.21V59H81ZM75,61V54.83l4,2.67V61Zm6,3V61h4v3Z" transform="translate(-5 -5)"/><path class="cls-3" d="M66,49a5,5,0,1,1,5-5A5,5,0,0,1,66,49Zm0-8a3,3,0,1,0,3,3A3,3,0,0,0,66,41Z" transform="translate(-5 -5)"/><path class="cls-9" d="M51,59V52.21a.5.5,0,0,0,0-.16,1,1,0,0,0-2,.43V59Z" transform="translate(-5 -5)"/></svg>