<?xml version="1.0" encoding="utf-8"?>
<!-- Generator: Adobe Illustrator 22.1.0, SVG Export Plug-In . SVG Version: 6.00 Build 0)  -->
<svg version="1.1" id="Layer_1" xmlns="http://www.w3.org/2000/svg" xmlns:xlink="http://www.w3.org/1999/xlink" x="0px" y="0px"
	 viewBox="0 0 220 188" style="enable-background:new 0 0 220 188;" xml:space="preserve">
<style type="text/css">
	.st0{fill:#F6F6F6;}
	.st1{fill:#FF5C47;}
	.st2{fill:none;stroke:#545E65;stroke-width:2;}
	.st3{fill:none;stroke:#545E65;}
	.st4{fill:none;stroke:#F6F6F6;stroke-width:2;}
	.st5{fill:#FFFFFF;}
	.st6{fill:#545E65;}
</style>
<title>illustration</title>
<desc>Created with Sketch.</desc>
<g id="_x33_" transform="translate(-240.000000, -1892.000000)">
	<g id="Golden-gate-bridge" transform="translate(200.000000, 1861.000000)">
		<g id="illustration" transform="translate(40.000000, 31.000000)">
			<g id="bridge" transform="translate(8.000000, 37.000000)">
				<polygon id="Fill-3" class="st0" points="149.5,88.9 149.5,52.8 145.5,48.8 145.5,10.8 139.5,10.8 139.5,48.8 135.5,52.8 
					135.5,88.9 131.5,92.9 131.5,142.9 153.5,142.9 153.5,92.9 				"/>
				<polygon id="Fill-5" class="st1" points="135.5,139.9 135.5,92.8 139.5,88.8 139.5,52.6 143.5,48.6 143.5,11.8 145.5,11.8 
					145.5,48.6 149.5,52.6 149.5,88.8 153.5,92.8 153.5,139.9 				"/>
				<path id="Stroke-7" class="st2" d="M142.5,4.8v6"/>
				<polygon id="Stroke-9" class="st2" points="149.5,88.9 149.5,52.8 145.5,48.8 145.5,10.8 139.5,10.8 139.5,48.8 135.5,52.8 
					135.5,88.9 131.5,92.9 131.5,142.9 153.5,142.9 153.5,92.9 				"/>
				<polygon id="Fill-11" class="st1" points="169.5,112.9 142.5,112.9 142.5,102.9 169.5,102.9 				"/>
				<polygon id="Stroke-13" class="st2" points="169.5,112.9 142.5,112.9 142.5,102.9 169.5,102.9 				"/>
				<polygon id="Fill-14" class="st1" points="169.5,68.7 142.5,68.7 142.5,58.7 169.5,58.7 				"/>
				<polygon id="Stroke-15" class="st2" points="169.5,68.7 142.5,68.7 142.5,58.7 169.5,58.7 				"/>
				<polygon id="Fill-16" class="st1" points="169.5,28.7 142.5,28.7 142.5,18.7 169.5,18.7 				"/>
				<polygon id="Stroke-17" class="st2" points="169.5,28.7 142.5,28.7 142.5,18.7 169.5,18.7 				"/>
				<path id="Stroke-18" class="st2" d="M142.5,115.9v-16"/>
				<path id="Stroke-19" class="st2" d="M142.5,71.7v-16"/>
				<path id="Stroke-20" class="st2" d="M142.5,31.7v-16"/>
				<path id="Stroke-21" class="st3" d="M154.5,25.7v-4"/>
				<path id="Stroke-22" class="st3" d="M154.5,65.7v-4"/>
				<path id="Stroke-23" class="st3" d="M154.5,109.9v-4"/>
				<path id="Stroke-24" class="st3" d="M150.5,25.7v-4"/>
				<path id="Stroke-25" class="st3" d="M150.5,65.7v-4"/>
				<path id="Stroke-26" class="st3" d="M150.5,109.9v-4"/>
				<path id="Stroke-27" class="st3" d="M146.5,25.7v-4"/>
				<path id="Stroke-28" class="st3" d="M146.5,65.7v-4"/>
				<path id="Stroke-29" class="st3" d="M146.5,109.9v-4"/>
				<path id="Stroke-30" class="st3" d="M158.5,25.7v-4"/>
				<path id="Stroke-31" class="st3" d="M158.5,65.7v-4"/>
				<path id="Stroke-32" class="st3" d="M158.5,109.9v-4"/>
				<path id="Stroke-33" class="st3" d="M162.5,25.7v-4"/>
				<path id="Stroke-34" class="st3" d="M162.5,65.7v-4"/>
				<path id="Stroke-35" class="st3" d="M162.5,109.9v-4"/>
				<path id="Stroke-36" class="st2" d="M139.5,17.8c0,38.7-26.9,70-60,70c-13.5,0-26-5.2-36-14"/>
				<path id="Fill-37" class="st0" d="M31.5,53.7v-3.1l4-4V33.7h-11v12.9l4,4v3.1H31.5z M30,88.4l1.5-1.5V73.7h-3v13.1L30,88.4z
					 M0.5,147.9V90.9l4-4V50.7l4-4V5.8h3v-5h10v5h3v8h11v-8h3v-5h10v5h3v40.9l4,4v36.2l4,4v57.1H0.5z"/>
				<path id="Stroke-38" class="st4" d="M106.5,89.8c-34.2,0-62-32.3-62-72h4c0,37.5,26,68,58,68s58-30.5,58-68h4
					C168.5,57.5,140.7,89.8,106.5,89.8L106.5,89.8z"/>
				<path id="Stroke-39" class="st2" d="M166.5,17.8c0,38.7-26.9,70-60,70s-60-31.3-60-70"/>
				<polygon id="Fill-40" class="st0" points="23.5,88.9 23.5,52.8 19.5,48.8 19.5,10.8 13.5,10.8 13.5,48.8 9.5,52.8 9.5,88.9 
					5.5,92.9 5.5,142.9 27.5,142.9 27.5,92.9 				"/>
				<polygon id="Fill-41" class="st1" points="9.5,139.9 9.5,92.8 13.5,88.8 13.5,52.6 17.5,48.6 17.5,11.8 19.5,11.8 19.5,48.6 
					23.5,52.6 23.5,88.8 27.5,92.8 27.5,139.9 				"/>
				<path id="Stroke-42" class="st2" d="M16.5,4.8v6"/>
				<polygon id="Stroke-43" class="st2" points="23.5,88.9 23.5,52.8 19.5,48.8 19.5,10.8 13.5,10.8 13.5,48.8 9.5,52.8 9.5,88.9 
					5.5,92.9 5.5,142.9 27.5,142.9 27.5,92.9 				"/>
				<polygon id="Fill-44" class="st1" points="43.5,112.9 16.5,112.9 16.5,102.9 43.5,102.9 				"/>
				<polygon id="Stroke-45" class="st2" points="43.5,112.9 16.5,112.9 16.5,102.9 43.5,102.9 				"/>
				<polygon id="Fill-46" class="st1" points="43.5,68.7 16.5,68.7 16.5,58.7 43.5,58.7 				"/>
				<polygon id="Stroke-47" class="st2" points="43.5,68.7 16.5,68.7 16.5,58.7 43.5,58.7 				"/>
				<polygon id="Fill-48" class="st1" points="43.5,28.7 16.5,28.7 16.5,18.7 43.5,18.7 				"/>
				<polygon id="Stroke-49" class="st2" points="43.5,28.7 16.5,28.7 16.5,18.7 43.5,18.7 				"/>
				<path id="Stroke-50" class="st2" d="M16.5,115.9v-16"/>
				<path id="Stroke-51" class="st2" d="M16.5,71.7v-16"/>
				<path id="Stroke-52" class="st2" d="M16.5,31.7v-16"/>
				<path id="Stroke-53" class="st3" d="M28.5,25.7v-4"/>
				<path id="Stroke-54" class="st3" d="M28.5,65.7v-4"/>
				<path id="Stroke-55" class="st3" d="M28.5,109.9v-4"/>
				<path id="Stroke-56" class="st3" d="M24.5,25.7v-4"/>
				<path id="Stroke-57" class="st3" d="M24.5,65.7v-4"/>
				<path id="Stroke-58" class="st3" d="M24.5,109.9v-4"/>
				<path id="Stroke-59" class="st3" d="M20.5,25.7v-4"/>
				<path id="Stroke-60" class="st3" d="M20.5,65.7v-4"/>
				<path id="Stroke-61" class="st3" d="M20.5,109.9v-4"/>
				<path id="Stroke-62" class="st3" d="M32.5,25.7v-4"/>
				<path id="Stroke-63" class="st3" d="M32.5,65.7v-4"/>
				<path id="Stroke-64" class="st3" d="M32.5,109.9v-4"/>
				<path id="Stroke-65" class="st3" d="M36.5,25.7v-4"/>
				<path id="Stroke-66" class="st3" d="M36.5,65.7v-4"/>
				<path id="Stroke-67" class="st3" d="M36.5,109.9v-4"/>
				<polygon id="Fill-68" class="st0" points="50.5,88.9 50.5,52.8 46.5,48.8 46.5,10.8 40.5,10.8 40.5,48.8 36.5,52.8 36.5,88.9 
					32.5,92.9 32.5,142.9 54.5,142.9 54.5,92.9 				"/>
				<polygon id="Fill-69" class="st1" points="36.5,139.9 36.5,92.8 40.5,88.8 40.5,52.6 44.5,48.6 44.5,11.8 46.5,11.8 46.5,48.6 
					50.5,52.6 50.5,88.8 54.5,92.8 54.5,139.9 				"/>
				<path id="Stroke-70" class="st2" d="M43.5,4.8v6"/>
				<polygon id="Stroke-71" class="st2" points="50.5,88.9 50.5,52.8 46.5,48.8 46.5,10.8 40.5,10.8 40.5,48.8 36.5,52.8 36.5,88.9 
					32.5,92.9 32.5,142.9 54.5,142.9 54.5,92.9 				"/>
				<polygon id="Fill-72" class="st0" points="176.5,88.9 176.5,52.8 172.5,48.8 172.5,10.8 166.5,10.8 166.5,48.8 162.5,52.8 
					162.5,88.9 158.5,92.9 158.5,142.9 180.5,142.9 180.5,92.9 				"/>
				<polygon id="Fill-73" class="st1" points="162.5,139.9 162.5,92.8 166.5,88.8 166.5,52.6 170.5,48.6 170.5,11.8 172.5,11.8 
					172.5,48.6 176.5,52.6 176.5,88.8 180.5,92.8 180.5,139.9 				"/>
				<path id="Stroke-74" class="st2" d="M169.5,4.8v6"/>
				<polygon id="Stroke-75" class="st2" points="176.5,88.9 176.5,52.8 172.5,48.8 172.5,10.8 166.5,10.8 166.5,48.8 162.5,52.8 
					162.5,88.9 158.5,92.9 158.5,142.9 180.5,142.9 180.5,92.9 				"/>
			</g>
			<g id="clouds" transform="translate(0.000000, 131.000000)">
				<path id="Combined-Shape" class="st0" d="M209.5,57H10.1C7,53.3,5.2,48.5,5.2,43.3c0-12,9.7-21.7,21.7-21.7
					c5.9,0,11.3,2.4,15.2,6.2c5.5-7.5,14.1-12.6,23.9-13.4C72.6,9,81.1,5.7,90.3,5.7c17.4,0,32.2,11.5,37,27.3
					c1.9-0.9,3.9-1.6,6-2.1c0-0.3,0-0.5,0-0.8c0-9.1,7.4-16.5,16.5-16.5c0.3,0,0.6,0,0.8,0c6.7-7.9,16.7-12.9,27.8-12.9
					c20.2,0,36.6,16.4,36.6,36.6C215.1,44.6,213,51.3,209.5,57z"/>
				<path id="Combined-Shape_1_" class="st5" d="M218.9,57H0.1c1.1-10.1,9.7-18,20.1-18c6.9,0,12.9,3.4,16.6,8.7
					c5.3-9.4,15.1-15.9,26.4-16.5c6.7-5.7,15.5-9.2,25-9.2c18.6,0,34.2,13.2,37.8,30.8c3.5-2.2,7.4-3.7,11.6-4.3
					c-0.2-1-0.4-2.1-0.4-3.2c0-8.1,6.6-14.7,14.7-14.7c0.7,0,1.5,0.1,2.2,0.2c6.7-8.5,17-13.9,28.5-13.9c20,0,36.3,16.3,36.3,36.3
					C219.1,54.4,219,55.7,218.9,57z"/>
				<path id="Stroke-78" class="st3" d="M26.9,21.6c5.9,0,11.3,2.4,15.2,6.2c5.5-7.5,14.1-12.6,23.9-13.4C72.6,9,81.1,5.7,90.3,5.7
					c17.4,0,32.2,11.5,37,27.3c1.9-0.9,3.9-1.6,6-2.1c0-0.3,0-0.5,0-0.8c0-9.1,7.4-16.5,16.5-16.5c0.3,0,0.6,0,0.8,0
					c6.7-7.9,16.7-12.9,27.8-12.9"/>
			</g>
			<g id="sun" transform="translate(62.000000, 0.000000)">
				<path id="Fill-1" class="st1" d="M20.5,13.1c0,5.5-4.5,10-10,10s-10-4.5-10-10s4.5-10,10-10S20.5,7.5,20.5,13.1"/>
				<path id="Fill-79" class="st6" d="M88.8,20.8c-2.8,0-5.3,1.4-6.8,3.6c-1.5-2.1-4-3.6-6.8-3.6c-1.7,0-3.4,0.5-4.7,1.5
					c0.4-0.1,0.9-0.1,1.4-0.1c4,0,7.4,2.9,8.2,6.7h0.5h3H84c0.8-3.8,4.1-6.7,8.2-6.7c0.5,0,0.9,0,1.4,0.1
					C92.2,21.3,90.6,20.8,88.8,20.8"/>
				<path id="Fill-80" class="st6" d="M107.1,0.8c-2.1,0-3.9,1-5,2.6c-1.1-1.6-3-2.6-5-2.6c-1.3,0-2.5,0.4-3.5,1.1
					c0.3-0.1,0.7-0.1,1-0.1c3,0,5.5,2.1,6,4.9h0.4h2.2h0.4c0.6-2.8,3.1-4.9,6-4.9c0.3,0,0.7,0,1,0.1C109.5,1.2,108.3,0.8,107.1,0.8"
					/>
			</g>
		</g>
	</g>
</g>
<polygon class="st1" points="121.3,42.6 121.3,74.9 110.4,81.2 99.5,87.5 88.6,81.2 77.6,74.9 77.6,42.6 88.6,36.3 99.5,30 
	110.4,36.3 "/>
<polygon class="st5" points="112,69.5 112,62.4 105.7,58.8 112,55.2 112,48 112,48 105.7,44.4 99.5,40.8 93.2,44.4 87,48 93.2,51.6 
	99.5,48 105.7,51.6 99.5,55.2 99.5,62.4 99.5,62.4 105.7,66 105.8,66 105.7,66 99.5,69.5 93.2,66 87,69.5 93.2,73.1 99.5,76.7 
	105.7,73.1 112,69.5 112,69.5 "/>
</svg>
