<svg id="Layer_1" data-name="Layer 1" xmlns="http://www.w3.org/2000/svg" viewBox="0 0 973.32 1100.8"><defs><style>.cls-1{fill:#995fff;}.cls-2{fill:#89e9d2;}</style></defs><title>logo-dark-gray</title><g id="_Group_" data-name="&lt;Group&gt;"><g id="_Group_2" data-name="&lt;Group&gt;"><path id="_Compound_Path_" data-name="&lt;Compound Path&gt;" class="cls-1" d="M588.63,66.62l-292,165.24L783.29,506.74,491.3,672v440.45l97.33,55,486.66-275.2V341.82ZM978,837.24,588.63,1057.46V727.29L880.62,562V451.77L491.3,231.86l97.33-55L978,397.11Z" transform="translate(-101.97 -66.62)"/><polygon id="_Path_" data-name="&lt;Path&gt;" class="cls-2" points="583.99 715.64 583.99 825.6 778.65 715.64 778.65 605.38 583.99 715.64"/><polygon id="_Path_2" data-name="&lt;Path&gt;" class="cls-1" points="486.66 440.45 389.33 385.47 194.66 495.42 194.66 935.87 292 990.85 292 550.4 486.66 440.45"/><polygon id="_Path_3" data-name="&lt;Path&gt;" class="cls-1" points="0 385.47 194.66 275.52 292 330.17 97.33 440.45 97.33 880.89 0 825.92 0 385.47"/></g></g></svg>